<svg width="729" height="790" viewBox="0 0 729 790" fill="none" xmlns="http://www.w3.org/2000/svg">
<path d="M506.933 105.681L511.804 97.6793C515.875 90.9906 518.284 83.4235 518.829 75.6122L518.851 75.3095C519.281 69.1457 518.688 62.9531 517.095 56.9829L516.5 54.75L513.5 43.5L496 2C496 0.658079 497.445 -0.187108 498.615 0.470784L504 3.5L513.5 10.5L517.66 13.8894C523.873 18.9523 529.605 24.5789 534.782 30.6975L538 34.5L549.5 50.5L550.957 53.0249C554.945 59.9384 557.51 67.5801 558.5 75.5L559.146 86.4739C559.381 90.4816 559.222 94.5027 558.67 98.4792L558.197 101.882C557.404 107.589 555.686 113.129 553.109 118.282C551.379 121.742 549.151 124.929 546.495 127.741L546.016 128.248C543.346 131.075 540.395 133.624 537.209 135.854L536.936 136.044C533.655 138.341 530.133 140.273 526.432 141.804L524.9 142.438C520.004 144.464 514.793 145.626 509.5 145.872L496 146.5C496 147.974 496.991 149.264 498.416 149.644L500.535 150.209C502.503 150.734 504.532 151 506.569 151H511.657C516.847 151 522 150.113 526.892 148.377L535 145.5L535.076 145.486C538.587 144.848 542.212 145.422 545.354 147.114C546.447 147.702 547.462 148.426 548.374 149.268L553.5 154L565.5 165.5L572.291 174.165C577.422 180.711 582.014 187.662 586.022 194.949L591 204L602 226.5L611 251.5L627.5 302.5L639.5 346L650.5 388.5L656 415.5L658 428L661 443L662.399 453.494C662.799 456.49 663.5 459.439 664.493 462.293C666.158 467.079 667.225 472.053 667.671 477.1L667.749 477.989C668.249 483.652 669.252 489.259 670.748 494.743L671.5 497.5L676 526.5L678 541.5L680 556.5L683.5 570L693.679 595.635C695.873 601.162 697 607.054 697 613L700 643.5L704.5 667L711.153 697.413C711.384 698.468 711.5 699.545 711.5 700.625V700.759C711.5 705.586 709.053 710.083 705.001 712.706C703.674 713.564 702.23 714.226 700.714 714.672L686 719C687.606 719.963 689.519 720.276 691.348 719.875L709 716H710.563C713.385 716 716.073 717.207 717.948 719.316C718.642 720.097 719.17 721.011 719.501 722.002L723.5 734L727.879 747.136C727.959 747.378 728.018 747.627 728.054 747.88L728.146 748.519C728.363 750.043 727.714 751.562 726.461 752.457C725.511 753.135 724.372 753.5 723.205 753.5H678.167C675.179 753.5 672.313 752.313 670.2 750.2C668.791 748.791 668 746.881 668 744.889V731V723V715.937C668 712.319 667.688 708.708 667.068 705.143L666 699L660 675.5L656.5 661.5L647.594 635.943C645.889 631.05 643.055 626.627 639.322 623.032L631.5 615.5L623.5 605.5L616.146 594.878C615.055 593.302 614.22 591.565 613.669 589.73C613.228 588.26 612.48 586.9 611.475 585.74L606.5 580L603.956 577.173C599.663 572.403 594.904 568.074 589.75 564.25L582 558.5L540.5 526.5L537.83 524.211C537.303 523.76 537 523.101 537 522.407C537 521.192 537.51 520.032 538.406 519.211L549 509.5L565.5 492L574.791 481.05C577.925 477.356 580.752 473.413 583.245 469.259L588.928 459.787C590.611 456.982 591.5 453.772 591.5 450.5L574.5 473.5L563.5 485L551.5 495.5L527.5 514L500.316 529.965C497.642 531.536 496 534.404 496 537.505C496 539.491 495.71 541.466 495.139 543.368L494.5 545.5L491.717 552.921C490.582 555.949 490 559.157 490 562.391C490 565.429 489.355 568.433 488.108 571.203L487.016 573.63C486.017 575.852 485.5 578.259 485.5 580.695V582.692C485.5 585.205 484.99 587.691 484 590L479.5 605L472 631L467.898 648.152C466.969 652.037 466.5 656.018 466.5 660.013V666.698C466.5 670.879 465.917 675.04 464.769 679.06L463.193 684.575C462.07 688.506 461.5 692.574 461.5 696.662V708.176C461.5 711.713 461.917 715.238 462.743 718.677L462.981 719.672C463.99 723.876 464.5 728.184 464.5 732.508V734.731C464.5 735.526 464.112 736.272 463.46 736.728C460.856 738.551 457.863 739.743 454.718 740.208L432.5 743.5L425 745.5C426.315 746.158 427.766 746.5 429.236 746.5H447.844C453.603 746.5 459.35 745.982 465.017 744.952L467.5 744.5V779.901C467.5 783.597 465.285 786.933 461.879 788.367C459.319 789.445 456.569 790 453.791 790H397.859C395.745 790 393.753 789.004 392.484 787.312C391.845 786.461 391.5 785.424 391.5 784.359V776.862C391.5 772.632 391.947 768.415 392.833 764.279L394.5 756.5L399.25 744.75L404 733C404.666 729.339 405.041 725.631 405.123 721.911L406 682L407 670.25L408 658.5L408.9 611.719C408.966 608.261 408.494 604.813 407.5 601.5L406.5 606.5L405 614.5L402.5 624L401.024 628.428C399.677 632.468 397.968 636.377 395.916 640.108C394.313 643.021 392.307 645.693 389.956 648.044L387.83 650.17C386.946 651.054 385.976 651.85 384.935 652.544L381.473 654.851C379.949 655.867 379.102 657.636 379.267 659.461L384.376 716.079C384.721 719.909 381.911 723.301 378.084 723.675L364.5 725C364.5 726.381 365.619 727.5 367 727.5H388V735.353C388 738.109 388.313 740.856 388.933 743.541L389.194 744.676C389.397 745.556 389.704 746.408 390.108 747.215L390.808 748.617C391.24 749.481 391.212 750.504 390.733 751.343C389.97 752.677 388.552 753.5 387.015 753.5H348.769C347.597 753.5 346.433 753.311 345.322 752.941L345.119 752.873C344.422 752.641 343.892 752.068 343.714 751.355C343.25 749.499 343.382 747.544 344.093 745.767L345.008 743.48C345.666 741.835 346.085 740.105 346.253 738.341L346.626 734.428C346.875 731.815 346.89 729.184 346.672 726.567L346 718.5L344 702.5L340.5 682.5L337 666.5L327 630L323.5 609.5L322.5 594.5L346 586L355.369 581.769C359.412 579.943 363.032 577.297 366 574L338.5 583L324.709 586.096C317.592 587.694 310.319 588.5 303.024 588.5H271L251.5 586L241.317 583.454C235.18 581.92 230.21 577.433 228.058 571.484L225.989 565.764C224.003 560.274 222.674 554.568 222.03 548.766L221 539.5L218.388 551.256C217.464 555.412 216.878 559.636 216.635 563.886L215.51 583.575C215.173 589.472 213.729 595.254 211.254 600.617L210.931 601.316C209.648 604.095 208.033 606.708 206.122 609.098C204.044 611.696 201.773 614.133 199.328 616.389L196.5 619L177.5 633.5L154 650L120.083 672.465C117.033 674.484 114.167 676.767 111.515 679.286C107.529 683.072 104.16 687.457 101.527 692.283L88.6841 715.829C87.8973 717.272 86.9488 718.62 85.8572 719.848C84.3438 721.551 82.2345 722.607 79.9647 722.8L60.8049 724.423C60.1988 724.475 60.2103 725.365 60.8176 725.401C61.9228 725.466 62.9958 725.797 63.9452 726.367L64.1577 726.495C64.7107 726.826 65.3369 727.017 65.981 727.05L84.5 728L79.3518 745.161C77.9559 749.814 73.6733 753 68.8157 753H3.33891C2.46981 753 1.62415 752.718 0.92887 752.197L0.814201 752.111C0.30165 751.726 0 751.123 0 750.482C0 749.206 0.469767 747.974 1.31976 747.021L29 716L69.9772 658.097C73.2783 653.433 75.4215 648.049 76.2296 642.393L76.5265 640.315C77.1672 635.83 78.8152 631.548 81.347 627.792L103.746 594.555C106.904 589.868 109.491 584.822 111.453 579.522L137 510.5L143.259 491.723C144.41 488.271 146.186 485.059 148.5 482.25L152 478L153.913 476.278C159.295 471.434 164.273 466.159 168.796 460.504L170 459L181 441.5L184.5 435L179.688 432.594C177.567 431.534 175.554 430.272 173.675 428.827L170 426L164.729 421.106C158.937 415.727 153.91 409.58 149.788 402.835C146.604 397.625 143.949 392.109 141.862 386.37L141.171 384.469C138.396 376.839 136.328 368.971 134.994 360.962L133.5 352L133.464 351.503C132.822 342.513 132.834 333.488 133.5 324.5L138 309.5L137 296L133.5 307L130.2 315.999C128.745 319.969 128 324.164 128 328.392V343.5L120.5 339L118.039 335.836C115.034 331.972 112.686 327.639 111.09 323.011C109.375 318.038 108.5 312.815 108.5 307.555V282L113.667 289.516C113.882 289.828 114.203 290.051 114.57 290.142C115.405 290.351 116.274 289.952 116.659 289.181L117.733 287.033C117.909 286.683 118 286.296 118 285.904V278.5V267.6C118 261.211 118.528 254.833 119.578 248.53L120.5 243L122.126 249.27C123.334 253.933 126.186 258.003 130.155 260.731L132 262L140 267.5L144.695 270.141C152.072 274.291 158.085 280.495 162 288C162.664 293.315 162.701 298.689 162.11 304.013L162 305L161.656 306.464C160.555 311.142 158.968 315.692 156.922 320.04L156 322L155.221 323.299C151.75 329.083 147.668 334.477 143.046 339.389C142.398 340.077 142.163 341.057 142.429 341.964L148 361L153.806 374.445C156.265 380.139 159.173 385.629 162.503 390.862L165.623 395.765C167.199 398.241 169.139 400.464 171.38 402.36C177.738 407.74 185.038 411.898 192.909 414.622L194 415L203.512 415.679C206.5 415.893 209.5 415.893 212.488 415.679C218.802 415.228 225.029 413.949 231.009 411.874L246.5 406.5L269.5 396.5L288 387L306.5 376L328 362.5L333.777 358.167C337.921 355.06 341.838 351.662 345.5 348L351 342.5L355.37 338.13C362.437 331.063 368.732 323.265 374.15 314.868L376 312L384.784 296.628C386.855 293.004 390.189 290.27 394.149 288.95C396.004 288.332 398.005 288.302 399.878 288.864L407 291L409.182 292.333C413.702 295.096 417.782 298.52 421.287 302.491L423.5 305L438 324L446.685 334.919C452.549 342.29 459.085 349.101 466.21 355.262L470.492 358.966C472.827 360.986 475.317 362.819 477.939 364.449L486.269 369.627C490.407 372.199 494.852 374.239 499.499 375.7L503.413 376.93C507.779 378.302 512.328 379 516.905 379H524.5L516 376L496 368.5L487 363.5L478 357L470.75 349.75L463.5 342.5L452 327.5L440.5 312L429.5 299.5L414.5 288L399.216 278.986C396.412 277.333 393.448 275.969 390.369 274.916L385.154 273.132C379.077 271.053 372.757 269.763 366.351 269.294L359.559 268.797C356.859 268.599 354.185 268.141 351.573 267.429L346.494 266.044C341.52 264.687 336.388 264 331.233 264H328L317.508 262.915C314.898 262.645 312.433 261.585 310.441 259.878L310.296 259.754C307.887 257.689 306.5 254.674 306.5 251.5V246.5L304.5 237.5L301.106 228.336C300.044 225.468 299.5 222.434 299.5 219.376C299.5 216.142 299.963 212.925 300.876 209.822L300.944 209.592C301.642 207.216 302.753 204.981 304.225 202.989L306.586 199.795C309.17 196.299 312.419 193.349 316.146 191.112L316.756 190.746C319.24 189.256 321.92 188.121 324.718 187.375L326.31 186.951C327.432 186.652 328.508 186.204 329.511 185.619L331.702 184.34C333.229 183.45 334.648 182.386 335.931 181.17L343.5 174L347.479 169.225C349.754 166.495 351 163.054 351 159.5L349.328 161.729C345.464 166.882 340.865 171.441 335.68 175.262L334 176.5L314.027 162.052C311.683 160.356 309.535 158.404 307.622 156.233L298.874 146.303C294.32 141.134 290.617 135.273 287.903 128.941L287.64 128.326C285.556 123.463 284.121 118.347 283.373 113.109C283.125 111.372 283 109.619 283 107.864V91.5L284.075 85.5881C285.345 78.6034 288.032 71.9527 291.97 66.0457L294.168 62.7481C294.717 61.9248 296 62.3134 296 63.3028V67.2549C296 72.3942 296.703 77.5093 298.088 82.4582C299.028 85.8131 300.256 89.0803 301.759 92.2233L304.108 97.1359C308.333 105.969 314.154 113.945 321.278 120.663C325.744 124.873 330.688 128.546 336.009 131.605L348 138.5V136.131C348 131.312 350.207 126.758 353.99 123.771C356.277 121.966 359.054 120.889 361.961 120.681L366.911 120.328C369.966 120.11 373.034 120.114 376.088 120.34L377.046 120.411C382.286 120.799 387.548 120.044 392.468 118.199L409 112L428.5 103L444.539 97.5234C447.504 96.5108 450.571 95.8254 453.685 95.4794L458.379 94.9579C461.118 94.6535 463.883 94.6481 466.623 94.9418L473.072 95.6327C475.337 95.8754 477.535 96.5457 479.55 97.608L499.01 107.869C501.814 109.347 505.285 108.389 506.933 105.681Z" fill="#01265C" style="fill:#01265C;fill:color(display-p3 0.0039 0.1490 0.3608);fill-opacity:1;"/>
</svg>
